<svg id="图层_1" data-name="图层 1" xmlns="http://www.w3.org/2000/svg" viewBox="0 0 600 600">
    <defs>
        <style>
            .cls-1 {
                fill: transparent;
            }

            .cls-2 {
                fill: none;
                stroke: #9cdbfd;
                stroke-linecap: round;
                stroke-linejoin: round;
                stroke-width: 10px;
            }

            .cls-3 {
                fill: #9cdbfd;
            }
        </style>
    </defs>
    <title>QQK-LOGO（线+颜色）2023.02.22(单色)</title>
    <path id="颜色" class="cls-1"
        d="M176.73892,120.39725s-49.18313,26.0325-73.47333,66.43907C53.472,269.6675,97.23038,238.62948,53.60538,274.87948,40.23011,285.9936,19.34416,294.293,19.34416,294.293s-.20473,7.37214,21.72993,12.37959c7.21371,1.64682,21.59614,2.46152,21.59614,2.46152s-10.93985,93.49542,39.37094,157.17659c29.20922,36.97174,65.412,56.6784,65.412,56.6784s-42.529-57-34.061-138.392c4.67741-44.958,11.04451-27.015,40.89137-64.21759,16.16978-20.15484,17.63133-33.57658,17.63133-33.57658s1.72893,22.41547,41.676,56.51948c43.74247,37.34429,94.20521,23.99017,94.20521,23.99017s-47.47494-13.65133-74.92919-51.05807c-18.61773-25.3669-18.95446-70.93584-18.95446-70.93584s23.48093,65.50736,85.60216,95.72882c75.73675,36.84529,148.02053,20.582,148.02053,20.582s8.923,50.95172,3.394,82.60077c-8.80462,50.39923-25.99609,77.20856-25.99609,77.20856s56.29733-38.80933,77.24114-103.44976c20.40468-62.97646,8.75-120,8.75-120a120.69579,120.69579,0,0,0,17.5566,3.91366c10.62251,1.63423,28.10965-4.70411,28.10965-4.70411s-53.55726-42.327-65.814-79.09725S455.17419,123.98905,373.28,102.89508c-97.58231-25.13484-148.35578.76064-148.35578.76064s-25-13.66667-27.88219-27.33865c-4.22726-20.05245-2.68857-49.54716-2.68857-49.54716s-26.76257,24.88581-27.42711,55.02631C166.45768,103.05179,176.73892,120.39725,176.73892,120.39725Z" />
    <path class="cls-2"
        d="M177.97884,119.69969s-45.32845,24.89024-66.25,54c-28.92818,40.25-36.42751,73.28938-36.42751,73.28938s-5.25958,15.63646-22.00067,27.71062c-14.69454,10.59813-34.26122,19.41347-34.26122,19.41347s7.85263,11.0032,27.26122,13.33653c7.71988.9281,11.81,1.2902,13.92644,1.42828a2.10783,2.10783,0,0,1,1.97361,2.24693c-.98387,14.71425-4.63785,101.037,39.59995,160.32479,29.36924,39.36084,67.37691,54.35957,67.37691,54.35957S138.34293,483.897,135.42566,416.27905c-1.91269-44.33333,9.011-68.31452,9.011-68.31452s18.20881-15.26484,29.54215-27.76484,18.91666-36.25,18.91666-36.25,9.455,37.52034,45.66667,64.16667c32.21326,23.7041,72.35556,23.69709,91.093,23.12981a1.77219,1.77219,0,0,0,.44556-3.473c-17.79808-5.13651-59.9796-24.26266-77.53854-51.6985-19.048-29.76248-19.77334-60.26158-22.01668-74.00827a.76362.76362,0,0,1,1.44627-.44551c8.23107,17.55371,35.849,86.8295,113.23708,109.32878,67.07182,19.5,122.00155,10.5,122.00155,10.5s11.3581,36.19954,2.46231,88.54259c-8.4337,49.62408-31.9337,75.45741-31.9337,75.45741s62.23168-33.78018,83.46984-100c18.33333-57.16269,12-127,12-127s10.25,4,20,4c10.11187,0,25.66625-4.79045,25.66625-4.79045s-24.41625-7.70955-53.85008-51.54578c-20.31813-30.2601-17.56617-69.41377-103.06617-121.91377-89.11722-54.7211-196.75-21.25-196.75-21.25s-23-13.5-27-29.5,0-47.5,0-47.5-30,23-31,52.5C166.38642,103.30089,177.97884,119.69969,177.97884,119.69969Z" />
    <ellipse class="cls-3" cx="405.74013" cy="416.27905" rx="21.75" ry="40.25" />
    <ellipse class="cls-3" cx="202.24013" cy="416.27905" rx="21.75" ry="40.25" />
    <path class="cls-3"
        d="M112.7204,364.08017l.8136-.32867.94324-.41583q.95488-.44055,1.91137-.93592c1.27417-.6568,2.5387-1.37268,3.7898-2.1206,2.50366-1.49573,4.94531-3.14862,7.3324-4.884,2.3977-1.71656,4.71716-3.56958,7.01574-5.43793l3.39734-2.87885,3.32837-2.96869.079-.07037a5.00816,5.00816,0,0,1,6.66711,7.475c-.12011.107-.25024.21155-.37719.305l-3.78748,2.76972-3.86182,2.67669c-2.61486,1.73548-5.24365,3.44538-7.97265,5.02551-2.71485,1.59589-5.48987,3.10639-8.36963,4.46833-1.44006.68121-2.901,1.33069-4.40369,1.92883q-1.1248.44952-2.2926.85681l-1.19434.39191c-.43249.13-.77307.23535-1.358.382a3.219,3.219,0,0,1-1.989-6.10669Z" />
    <path class="cls-3"
        d="M454.8132,315.89751c.54431.78162.90894,1.38,1.32446,2.05762l1.15247,1.9812c.72607,1.32471,1.43152,2.65625,2.08655,3.99976.68457,1.33691,1.27136,2.6997,1.91138,4.05066l1.74865,4.101c2.25781,5.49243,4.12927,11.101,5.817,16.75378,1.721,5.64856,3.08874,11.375,4.39441,17.11524.62243,2.87463,1.17126,5.76147,1.75989,8.645l1.49536,8.68725a5.00262,5.00262,0,1,1-9.86023,1.69727q-.01941-.11169-.03345-.22315l-.01855-.15271-1.03736-8.47619c-.43371-2.80811-.82763-5.6283-1.293-8.433-.99011-5.59326-2.03918-11.18676-3.42688-16.68164-1.35449-5.502-2.88635-10.96447-4.77319-16.27331l-1.4635-3.95679c-.53784-1.28943-1.03015-2.61194-1.60449-3.87878-.55054-1.2854-1.13941-2.53931-1.74292-3.7826l-.94129-1.817c-.31006-.573-.67724-1.22217-.937-1.64258l-.08752-.14172a3.30819,3.30819,0,0,1,5.52917-3.62928Z" />
</svg>