<svg id="图层_1" data-name="图层 1" xmlns="http://www.w3.org/2000/svg" viewBox="0 0 600 600">
    <defs>
        <style>
            .cls-1 {
                fill: transparent;
            }

            .cls-2 {
                fill: none;
                stroke: #9cdbfd;
                stroke-linecap: round;
                stroke-linejoin: round;
                stroke-width: 10px;
            }

            .cls-3 {
                fill: #9cdbfd;
            }
        </style>
    </defs>
    <title>QQK-LOGO-Plain</title>
    <path id="颜色" class="cls-1"
        d="M175.77165,135.51777s-49.18312,26.0325-73.47333,66.43906C52.50476,284.788,96.26311,253.75,52.63811,290c-13.37527,11.11412-34.26122,19.41347-34.26122,19.41347s-.20473,7.37214,21.72993,12.3796c7.21372,1.64682,21.59614,2.46151,21.59614,2.46151S50.76311,417.75,101.0739,481.43117c29.20922,36.97174,65.412,56.67839,65.412,56.67839s-42.529-57-34.061-138.392c4.67741-44.958,11.04451-27.01495,40.89137-64.21759,16.16979-20.15483,17.63133-33.57657,17.63133-33.57657s1.72893,22.41547,41.676,56.51948c43.74247,37.34428,94.20521,23.99017,94.20521,23.99017s-47.47494-13.65133-74.92919-51.05808c-18.61773-25.36689-18.95446-70.93583-18.95446-70.93583s23.48093,65.50736,85.60216,95.72881c75.73675,36.84529,148.02053,20.582,148.02053,20.582s8.923,50.95173,3.394,82.60078c-8.80462,50.39922-25.99608,77.20855-25.99608,77.20855S500.26311,497.75,521.20692,433.10956c20.40468-62.97646,8.75-120,8.75-120a120.69459,120.69459,0,0,0,17.5566,3.91366c10.62251,1.63424,28.10966-4.70411,28.10966-4.70411s-53.55727-42.327-65.814-79.09724S454.20692,139.10956,372.3127,118.0156c-97.58231-25.13484-148.35578.76063-148.35578.76063s-25-13.66667-27.88219-27.33865c-4.22725-20.05244-2.68856-49.54716-2.68856-49.54716s-26.76258,24.88581-27.42712,55.02632C165.49041,118.17231,175.77165,135.51777,175.77165,135.51777Z" />
    <path class="cls-2"
        d="M177.01157,134.82021s-45.32845,24.89023-66.25,54c-28.92818,40.25-36.42751,73.28938-36.42751,73.28938s-5.25958,15.63646-22.00067,27.71062c-14.69454,10.59813-34.26121,19.41347-34.26121,19.41347s7.85262,11.00319,27.26121,13.33653c7.71988.92809,11.81,1.2902,13.92644,1.42828a2.10783,2.10783,0,0,1,1.97361,2.24692c-.98387,14.71426-4.63785,101.037,39.59995,160.3248,29.36925,39.36084,67.37691,54.35957,67.37691,54.35957s-30.83464-41.91224-33.75191-109.53021c-1.91269-44.33334,9.011-68.31452,9.011-68.31452s18.20881-15.26484,29.54215-27.76484,18.91666-36.25,18.91666-36.25,9.455,37.52034,45.66667,64.16666c32.21326,23.7041,72.35556,23.6971,91.093,23.12982a1.77219,1.77219,0,0,0,.44557-3.473c-17.79809-5.13652-59.97961-24.26267-77.53855-51.6985-19.048-29.76248-19.77334-60.26159-22.01668-74.00827a.76362.76362,0,0,1,1.44627-.44551c8.23107,17.5537,35.849,86.8295,113.23708,109.32878,67.07182,19.5,122.00155,10.5,122.00155,10.5s11.3581,36.19954,2.46231,88.54258c-8.4337,49.62408-31.9337,75.45742-31.9337,75.45742s62.23168-33.78018,83.46984-100c18.33333-57.16269,12-127,12-127s10.25,4,20,4c10.11187,0,25.66625-4.79046,25.66625-4.79046s-24.41625-7.70954-53.85008-51.54578c-20.31813-30.2601-17.56617-69.41376-103.06617-121.91376-89.11722-54.7211-196.75-21.25-196.75-21.25s-23-13.5-27-29.5,0-47.5,0-47.5-30,23-31,52.5C165.41915,118.42141,177.01157,134.82021,177.01157,134.82021Z" />
    <ellipse class="cls-3" cx="404.77287" cy="431.39957" rx="21.75" ry="40.25" />
    <ellipse class="cls-3" cx="201.27286" cy="431.39957" rx="21.75" ry="40.25" />
    <path class="cls-3"
        d="M111.75317,379.20076l.81348-.32874.94336-.41577q.95471-.44073,1.91125-.936c1.27417-.65674,2.53882-1.37268,3.7898-2.12061,2.50378-1.49573,4.94543-3.14856,7.3324-4.88391,2.39782-1.71655,4.71716-3.56958,7.01574-5.43787l3.39734-2.8789,3.32849-2.96863.07886-.07044a5.00818,5.00818,0,0,1,6.66724,7.475c-.12012.10718-.25025.21155-.37732.305l-3.78735,2.76966-3.86194,2.67676c-2.61487,1.73547-5.24353,3.44543-7.97266,5.02551-2.71472,1.596-5.48975,3.10644-8.36963,4.46826-1.43994.68127-2.90088,1.33069-4.40356,1.92895q-1.12482.44936-2.29261.85682l-1.19433.39184c-.43262.13-.77307.23535-1.358.382a3.219,3.219,0,0,1-1.98914-6.10669Z" />
    <path class="cls-3"
        d="M453.84583,331.018c.54443.78162.90905,1.38,1.32446,2.05762l1.15259,1.9812c.72607,1.3247,1.43151,2.65625,2.08654,3.99975.68457,1.337,1.27137,2.69971,1.91138,4.05066l1.74866,4.10095c2.25781,5.49256,4.12927,11.101,5.817,16.75379,1.721,5.64856,3.08875,11.375,4.39441,17.11523.62244,2.87464,1.17127,5.76148,1.75989,8.645l1.49536,8.68726a5.00268,5.00268,0,1,1-9.86035,1.69726q-.01923-.11169-.03332-.22314l-.01856-.15271-1.03735-8.4762c-.43372-2.8081-.82764-5.62829-1.293-8.43286-.99011-5.59338-2.03919-11.18689-3.42688-16.68176-1.35449-5.50195-2.88635-10.96448-4.77319-16.27332L453.63,345.91011c-.53784-1.28955-1.03015-2.61206-1.60449-3.87879-.55053-1.28552-1.1394-2.53942-1.74292-3.78271l-.94128-1.817c-.31006-.573-.67725-1.222-.937-1.64257l-.08753-.14173a3.30814,3.30814,0,0,1,5.52906-3.62927Z" />
</svg>